<svg xmlns="http://www.w3.org/2000/svg" width="1400" height="950" viewBox="0 0 1400 950">
<defs><marker id="a" markerWidth="10" markerHeight="10" refX="9" refY="3" orient="auto"><path d="M0,0 L0,6 L9,3 z" fill="#64748b"/></marker></defs>
<rect width="100%" height="100%" fill="#0c0f14"/>
<text x="700" y="36" text-anchor="middle" font-family="Arial" font-size="25" font-weight="700" fill="white">Context and artifact lifecycle</text>
<line x1="700" y1="107" x2="700" y2="141" stroke="#94a3b8" stroke-width="2" marker-end="url(#a)"/>
<text x="718" y="128" font-family="Arial" font-size="13" fill="#cbd5e1">versioned + hashed</text>
<line x1="700" y1="191" x2="700" y2="225" stroke="#94a3b8" stroke-width="2" marker-end="url(#a)"/>
<text x="718" y="212" font-family="Arial" font-size="13" fill="#cbd5e1">claim</text>
<line x1="700" y1="275" x2="700" y2="309" stroke="#94a3b8" stroke-width="2" marker-end="url(#a)"/>
<text x="718" y="296" font-family="Arial" font-size="13" fill="#cbd5e1">close custody</text>
<line x1="700" y1="359" x2="700" y2="393" stroke="#94a3b8" stroke-width="2" marker-end="url(#a)"/>
<text x="718" y="380" font-family="Arial" font-size="13" fill="#cbd5e1">content address</text>
<line x1="700" y1="443" x2="700" y2="477" stroke="#94a3b8" stroke-width="2" marker-end="url(#a)"/>
<text x="718" y="464" font-family="Arial" font-size="13" fill="#cbd5e1">exact digest</text>
<line x1="700" y1="527" x2="700" y2="561" stroke="#94a3b8" stroke-width="2" marker-end="url(#a)"/>
<text x="718" y="548" font-family="Arial" font-size="13" fill="#cbd5e1">pass only</text>
<line x1="700" y1="611" x2="700" y2="645" stroke="#94a3b8" stroke-width="2" marker-end="url(#a)"/>
<text x="718" y="632" font-family="Arial" font-size="13" fill="#cbd5e1">named edges</text>
<line x1="700" y1="695" x2="700" y2="729" stroke="#94a3b8" stroke-width="2" marker-end="url(#a)"/>
<text x="718" y="716" font-family="Arial" font-size="13" fill="#cbd5e1">assembly</text>
<line x1="700" y1="779" x2="700" y2="813" stroke="#94a3b8" stroke-width="2" marker-end="url(#a)"/>
<text x="718" y="800" font-family="Arial" font-size="13" fill="#cbd5e1">exact integrated digest</text>
<rect x="210" y="57" width="980" height="50" rx="9" fill="#172554" stroke="#60a5fa"/>
<text x="700" y="87" text-anchor="middle" font-family="Arial" font-size="16" fill="white">Contract + Plan + source tree + owner decisions + verified predecessor lineage</text>
<rect x="210" y="141" width="980" height="50" rx="9" fill="#172554" stroke="#60a5fa"/>
<text x="700" y="171" text-anchor="middle" font-family="Arial" font-size="16" fill="white">Hashed input manifest -&gt; Attempt / persistent Codex thread</text>
<rect x="210" y="225" width="980" height="50" rx="9" fill="#172554" stroke="#60a5fa"/>
<text x="700" y="255" text-anchor="middle" font-family="Arial" font-size="16" fill="white">Output manifest</text>
<rect x="210" y="309" width="980" height="50" rx="9" fill="#172554" stroke="#60a5fa"/>
<text x="700" y="339" text-anchor="middle" font-family="Arial" font-size="16" fill="white">Settle turn/children; fence writes</text>
<rect x="210" y="393" width="980" height="50" rx="9" fill="#172554" stroke="#60a5fa"/>
<text x="700" y="423" text-anchor="middle" font-family="Arial" font-size="16" fill="white">Immutable WorkUnit snapshot</text>
<rect x="210" y="477" width="980" height="50" rx="9" fill="#172554" stroke="#60a5fa"/>
<text x="700" y="507" text-anchor="middle" font-family="Arial" font-size="16" fill="white">Checks attest exact WorkUnit snapshot</text>
<rect x="210" y="561" width="980" height="50" rx="9" fill="#172554" stroke="#60a5fa"/>
<text x="700" y="591" text-anchor="middle" font-family="Arial" font-size="16" fill="white">Verified output on exact Plan edge</text>
<rect x="210" y="645" width="980" height="50" rx="9" fill="#172554" stroke="#60a5fa"/>
<text x="700" y="675" text-anchor="middle" font-family="Arial" font-size="16" fill="white">Integration WorkUnit consumes ordered verified lineage</text>
<rect x="210" y="729" width="980" height="50" rx="9" fill="#172554" stroke="#60a5fa"/>
<text x="700" y="759" text-anchor="middle" font-family="Arial" font-size="16" fill="white">Distinct integrated snapshot</text>
<rect x="210" y="813" width="980" height="50" rx="9" fill="#172554" stroke="#60a5fa"/>
<text x="700" y="843" text-anchor="middle" font-family="Arial" font-size="16" fill="white">Final checks and owner review attest integrated snapshot + lineage</text>
</svg>