<?xml version="1.0" encoding="UTF-8" standalone="no"?>
<!DOCTYPE svg PUBLIC "-//W3C//DTD SVG 1.1//EN"
 "http://www.w3.org/Graphics/SVG/1.1/DTD/svg11.dtd">
<!-- Generated by graphviz version 2.43.0 (0)
 -->
<!-- Title: G Pages: 1 -->
<svg width="519pt" height="819pt"
 viewBox="0.00 0.00 519.20 819.20" xmlns="http://www.w3.org/2000/svg" xmlns:xlink="http://www.w3.org/1999/xlink">
<g id="graph0" class="graph" transform="scale(1 1) rotate(0) translate(39.6 779.6)">
<title>G</title>
<polygon fill="#0c0f14" stroke="transparent" points="-39.6,39.6 -39.6,-779.6 479.6,-779.6 479.6,39.6 -39.6,39.6"/>
<text text-anchor="middle" x="220" y="-717.6" font-family="Times,serif" font-size="23.00" fill="white">Dependency&#45;ordered execution map</text>
<!-- 0 Architecture freeze -->
<g id="node1" class="node">
<title>0 Architecture freeze</title>
<path fill="#171b22" stroke="#667085" d="M268,-707C268,-707 172,-707 172,-707 166,-707 160,-701 160,-695 160,-695 160,-683 160,-683 160,-677 166,-671 172,-671 172,-671 268,-671 268,-671 274,-671 280,-677 280,-683 280,-683 280,-695 280,-695 280,-701 274,-707 268,-707"/>
<text text-anchor="middle" x="220" y="-686.2" font-family="Arial" font-size="11.00" fill="white">0 Architecture freeze</text>
</g>
<!-- 1 Native Codex substrate -->
<g id="node2" class="node">
<title>1 Native Codex substrate</title>
<path fill="#171b22" stroke="#667085" d="M279,-646C279,-646 161,-646 161,-646 155,-646 149,-640 149,-634 149,-634 149,-622 149,-622 149,-616 155,-610 161,-610 161,-610 279,-610 279,-610 285,-610 291,-616 291,-622 291,-622 291,-634 291,-634 291,-640 285,-646 279,-646"/>
<text text-anchor="middle" x="220" y="-625.2" font-family="Arial" font-size="11.00" fill="white">1 Native Codex substrate</text>
</g>
<!-- 0 Architecture freeze&#45;&gt;1 Native Codex substrate -->
<g id="edge1" class="edge">
<title>0 Architecture freeze&#45;&gt;1 Native Codex substrate</title>
<path fill="none" stroke="#9aa4b2" d="M220,-670.93C220,-666.45 220,-661.49 220,-656.61"/>
<polygon fill="#9aa4b2" stroke="#9aa4b2" points="223.5,-656.23 220,-646.23 216.5,-656.23 223.5,-656.23"/>
</g>
<!-- 2 Unified session controller -->
<g id="node3" class="node">
<title>2 Unified session controller</title>
<path fill="#171b22" stroke="#667085" d="M283,-585C283,-585 157,-585 157,-585 151,-585 145,-579 145,-573 145,-573 145,-561 145,-561 145,-555 151,-549 157,-549 157,-549 283,-549 283,-549 289,-549 295,-555 295,-561 295,-561 295,-573 295,-573 295,-579 289,-585 283,-585"/>
<text text-anchor="middle" x="220" y="-564.2" font-family="Arial" font-size="11.00" fill="white">2 Unified session controller</text>
</g>
<!-- 1 Native Codex substrate&#45;&gt;2 Unified session controller -->
<g id="edge2" class="edge">
<title>1 Native Codex substrate&#45;&gt;2 Unified session controller</title>
<path fill="none" stroke="#9aa4b2" d="M220,-609.93C220,-605.45 220,-600.49 220,-595.61"/>
<polygon fill="#9aa4b2" stroke="#9aa4b2" points="223.5,-595.23 220,-585.23 216.5,-595.23 223.5,-595.23"/>
</g>
<!-- 3 S1 interactive extension -->
<g id="node4" class="node">
<title>3 S1 interactive extension</title>
<path fill="#171b22" stroke="#667085" d="M280,-524C280,-524 160,-524 160,-524 154,-524 148,-518 148,-512 148,-512 148,-500 148,-500 148,-494 154,-488 160,-488 160,-488 280,-488 280,-488 286,-488 292,-494 292,-500 292,-500 292,-512 292,-512 292,-518 286,-524 280,-524"/>
<text text-anchor="middle" x="220" y="-503.2" font-family="Arial" font-size="11.00" fill="white">3 S1 interactive extension</text>
</g>
<!-- 2 Unified session controller&#45;&gt;3 S1 interactive extension -->
<g id="edge3" class="edge">
<title>2 Unified session controller&#45;&gt;3 S1 interactive extension</title>
<path fill="none" stroke="#9aa4b2" d="M220,-548.93C220,-544.45 220,-539.49 220,-534.61"/>
<polygon fill="#9aa4b2" stroke="#9aa4b2" points="223.5,-534.23 220,-524.23 216.5,-534.23 223.5,-534.23"/>
</g>
<!-- 4 Persistent&#45;session cutover -->
<g id="node5" class="node">
<title>4 Persistent&#45;session cutover</title>
<path fill="#171b22" stroke="#667085" d="M286,-463C286,-463 154,-463 154,-463 148,-463 142,-457 142,-451 142,-451 142,-439 142,-439 142,-433 148,-427 154,-427 154,-427 286,-427 286,-427 292,-427 298,-433 298,-439 298,-439 298,-451 298,-451 298,-457 292,-463 286,-463"/>
<text text-anchor="middle" x="220" y="-442.2" font-family="Arial" font-size="11.00" fill="white">4 Persistent&#45;session cutover</text>
</g>
<!-- 3 S1 interactive extension&#45;&gt;4 Persistent&#45;session cutover -->
<g id="edge4" class="edge">
<title>3 S1 interactive extension&#45;&gt;4 Persistent&#45;session cutover</title>
<path fill="none" stroke="#9aa4b2" d="M220,-487.93C220,-483.45 220,-478.49 220,-473.61"/>
<polygon fill="#9aa4b2" stroke="#9aa4b2" points="223.5,-473.23 220,-463.23 216.5,-473.23 223.5,-473.23"/>
</g>
<!-- 5 Context and Artifact Protocol -->
<g id="node6" class="node">
<title>5 Context and Artifact Protocol</title>
<path fill="#171b22" stroke="#667085" d="M291.5,-402C291.5,-402 148.5,-402 148.5,-402 142.5,-402 136.5,-396 136.5,-390 136.5,-390 136.5,-378 136.5,-378 136.5,-372 142.5,-366 148.5,-366 148.5,-366 291.5,-366 291.5,-366 297.5,-366 303.5,-372 303.5,-378 303.5,-378 303.5,-390 303.5,-390 303.5,-396 297.5,-402 291.5,-402"/>
<text text-anchor="middle" x="220" y="-381.2" font-family="Arial" font-size="11.00" fill="white">5 Context and Artifact Protocol</text>
</g>
<!-- 4 Persistent&#45;session cutover&#45;&gt;5 Context and Artifact Protocol -->
<g id="edge5" class="edge">
<title>4 Persistent&#45;session cutover&#45;&gt;5 Context and Artifact Protocol</title>
<path fill="none" stroke="#9aa4b2" d="M220,-426.93C220,-422.45 220,-417.49 220,-412.61"/>
<polygon fill="#9aa4b2" stroke="#9aa4b2" points="223.5,-412.23 220,-402.23 216.5,-412.23 223.5,-412.23"/>
</g>
<!-- 6 Nonterminal attention -->
<g id="node7" class="node">
<title>6 Nonterminal attention</title>
<path fill="#171b22" stroke="#667085" d="M274,-341C274,-341 166,-341 166,-341 160,-341 154,-335 154,-329 154,-329 154,-317 154,-317 154,-311 160,-305 166,-305 166,-305 274,-305 274,-305 280,-305 286,-311 286,-317 286,-317 286,-329 286,-329 286,-335 280,-341 274,-341"/>
<text text-anchor="middle" x="220" y="-320.2" font-family="Arial" font-size="11.00" fill="white">6 Nonterminal attention</text>
</g>
<!-- 5 Context and Artifact Protocol&#45;&gt;6 Nonterminal attention -->
<g id="edge6" class="edge">
<title>5 Context and Artifact Protocol&#45;&gt;6 Nonterminal attention</title>
<path fill="none" stroke="#9aa4b2" d="M220,-365.93C220,-361.45 220,-356.49 220,-351.61"/>
<polygon fill="#9aa4b2" stroke="#9aa4b2" points="223.5,-351.23 220,-341.23 216.5,-351.23 223.5,-351.23"/>
</g>
<!-- 7 Mission Supervisor protocol -->
<g id="node8" class="node">
<title>7 Mission Supervisor protocol</title>
<path fill="#171b22" stroke="#667085" d="M289,-280C289,-280 151,-280 151,-280 145,-280 139,-274 139,-268 139,-268 139,-256 139,-256 139,-250 145,-244 151,-244 151,-244 289,-244 289,-244 295,-244 301,-250 301,-256 301,-256 301,-268 301,-268 301,-274 295,-280 289,-280"/>
<text text-anchor="middle" x="220" y="-259.2" font-family="Arial" font-size="11.00" fill="white">7 Mission Supervisor protocol</text>
</g>
<!-- 6 Nonterminal attention&#45;&gt;7 Mission Supervisor protocol -->
<g id="edge7" class="edge">
<title>6 Nonterminal attention&#45;&gt;7 Mission Supervisor protocol</title>
<path fill="none" stroke="#9aa4b2" d="M220,-304.93C220,-300.45 220,-295.49 220,-290.61"/>
<polygon fill="#9aa4b2" stroke="#9aa4b2" points="223.5,-290.23 220,-280.23 216.5,-290.23 223.5,-290.23"/>
</g>
<!-- 8 MissionProjection -->
<g id="node9" class="node">
<title>8 MissionProjection</title>
<path fill="#171b22" stroke="#667085" d="M265,-219C265,-219 175,-219 175,-219 169,-219 163,-213 163,-207 163,-207 163,-195 163,-195 163,-189 169,-183 175,-183 175,-183 265,-183 265,-183 271,-183 277,-189 277,-195 277,-195 277,-207 277,-207 277,-213 271,-219 265,-219"/>
<text text-anchor="middle" x="220" y="-198.2" font-family="Arial" font-size="11.00" fill="white">8 MissionProjection</text>
</g>
<!-- 7 Mission Supervisor protocol&#45;&gt;8 MissionProjection -->
<g id="edge8" class="edge">
<title>7 Mission Supervisor protocol&#45;&gt;8 MissionProjection</title>
<path fill="none" stroke="#9aa4b2" d="M220,-243.93C220,-239.45 220,-234.49 220,-229.61"/>
<polygon fill="#9aa4b2" stroke="#9aa4b2" points="223.5,-229.23 220,-219.23 216.5,-229.23 223.5,-229.23"/>
</g>
<!-- 9 UI integration -->
<g id="node10" class="node">
<title>9 UI integration</title>
<path fill="#171b22" stroke="#667085" d="M255,-158C255,-158 185,-158 185,-158 179,-158 173,-152 173,-146 173,-146 173,-134 173,-134 173,-128 179,-122 185,-122 185,-122 255,-122 255,-122 261,-122 267,-128 267,-134 267,-134 267,-146 267,-146 267,-152 261,-158 255,-158"/>
<text text-anchor="middle" x="220" y="-137.2" font-family="Arial" font-size="11.00" fill="white">9 UI integration</text>
</g>
<!-- 8 MissionProjection&#45;&gt;9 UI integration -->
<g id="edge9" class="edge">
<title>8 MissionProjection&#45;&gt;9 UI integration</title>
<path fill="none" stroke="#9aa4b2" d="M220,-182.93C220,-178.45 220,-173.49 220,-168.61"/>
<polygon fill="#9aa4b2" stroke="#9aa4b2" points="223.5,-168.23 220,-158.23 216.5,-168.23 223.5,-168.23"/>
</g>
<!-- 10 Serial packaged proof -->
<g id="node11" class="node">
<title>10 Serial packaged proof</title>
<path fill="#171b22" stroke="#667085" d="M278.5,-97C278.5,-97 161.5,-97 161.5,-97 155.5,-97 149.5,-91 149.5,-85 149.5,-85 149.5,-73 149.5,-73 149.5,-67 155.5,-61 161.5,-61 161.5,-61 278.5,-61 278.5,-61 284.5,-61 290.5,-67 290.5,-73 290.5,-73 290.5,-85 290.5,-85 290.5,-91 284.5,-97 278.5,-97"/>
<text text-anchor="middle" x="220" y="-76.2" font-family="Arial" font-size="11.00" fill="white">10 Serial packaged proof</text>
</g>
<!-- 9 UI integration&#45;&gt;10 Serial packaged proof -->
<g id="edge10" class="edge">
<title>9 UI integration&#45;&gt;10 Serial packaged proof</title>
<path fill="none" stroke="#9aa4b2" d="M220,-121.93C220,-117.45 220,-112.49 220,-107.61"/>
<polygon fill="#9aa4b2" stroke="#9aa4b2" points="223.5,-107.23 220,-97.23 216.5,-107.23 223.5,-107.23"/>
</g>
<!-- 11 Cleanup and concurrency -->
<g id="node12" class="node">
<title>11 Cleanup and concurrency</title>
<path fill="#171b22" stroke="#667085" d="M287,-36C287,-36 153,-36 153,-36 147,-36 141,-30 141,-24 141,-24 141,-12 141,-12 141,-6 147,0 153,0 153,0 287,0 287,0 293,0 299,-6 299,-12 299,-12 299,-24 299,-24 299,-30 293,-36 287,-36"/>
<text text-anchor="middle" x="220" y="-15.2" font-family="Arial" font-size="11.00" fill="white">11 Cleanup and concurrency</text>
</g>
<!-- 10 Serial packaged proof&#45;&gt;11 Cleanup and concurrency -->
<g id="edge11" class="edge">
<title>10 Serial packaged proof&#45;&gt;11 Cleanup and concurrency</title>
<path fill="none" stroke="#9aa4b2" d="M220,-60.93C220,-56.45 220,-51.49 220,-46.61"/>
<polygon fill="#9aa4b2" stroke="#9aa4b2" points="223.5,-46.23 220,-36.23 216.5,-46.23 223.5,-46.23"/>
</g>
</g>
</svg>
